<?xml version="1.0" encoding="UTF-8" standalone="no"?>
<!-- Created with Inkscape (http://www.inkscape.org/) -->

<svg
   width="21.6525mm"
   height="5.7047997mm"
   viewBox="0 0 21.6525 5.7047996"
   version="1.1"
   id="svg1"
   inkscape:version="1.4.2 (f4327f4, 2025-05-13)"
   sodipodi:docname="gvmlogo.svg"
   xmlns:inkscape="http://www.inkscape.org/namespaces/inkscape"
   xmlns:sodipodi="http://sodipodi.sourceforge.net/DTD/sodipodi-0.dtd"
   xmlns="http://www.w3.org/2000/svg"
   xmlns:svg="http://www.w3.org/2000/svg">
  <sodipodi:namedview
     id="namedview1"
     pagecolor="#ffffff"
     bordercolor="#999999"
     borderopacity="1"
     inkscape:showpageshadow="2"
     inkscape:pageopacity="0"
     inkscape:pagecheckerboard="0"
     inkscape:deskcolor="#d1d1d1"
     inkscape:document-units="mm"
     showguides="false"
     inkscape:zoom="2.8284271"
     inkscape:cx="42.072853"
     inkscape:cy="9.1923881"
     inkscape:window-width="1440"
     inkscape:window-height="829"
     inkscape:window-x="-8"
     inkscape:window-y="-8"
     inkscape:window-maximized="1"
     inkscape:current-layer="layer1" />
  <defs
     id="defs1">
    <inkscape:path-effect
       effect="fillet_chamfer"
       id="path-effect28"
       is_visible="true"
       lpeversion="1"
       nodesatellites_param="F,0,0,1,0,0,0,1 @ F,0,0,1,0,0,0,1 @ F,0,0,1,0,0,0,1 @ F,0,0,1,0,0,0,1 @ F,0,0,1,0,0,0,1 @ F,0,0,1,0,0,0,1 @ F,0,0,1,0,0,0,1 @ F,0,0,1,0,0,0,1 @ F,0,0,1,0,0,0,1 @ F,0,0,1,0,0,0,1 @ F,0,0,1,0,0,0,1"
       radius="0"
       unit="px"
       method="auto"
       mode="F"
       chamfer_steps="1"
       flexible="false"
       use_knot_distance="true"
       apply_no_radius="true"
       apply_with_radius="true"
       only_selected="false"
       hide_knots="false" />
    <inkscape:path-effect
       effect="fillet_chamfer"
       id="path-effect27"
       is_visible="true"
       lpeversion="1"
       nodesatellites_param="F,0,0,1,0,0,0,1 @ F,0,0,1,0,0,0,1 @ F,0,0,1,0,0,0,1 @ F,0,0,1,0,0,0,1 @ F,0,0,1,0,0,0,1 @ F,0,0,1,0,0,0,1 @ F,0,0,1,0,0,0,1 @ F,0,0,1,0,0,0,1 @ F,0,0,1,0,0,0,1 @ F,0,0,1,0,0,0,1 @ F,0,0,1,0,0,0,1"
       radius="0"
       unit="px"
       method="auto"
       mode="F"
       chamfer_steps="1"
       flexible="false"
       use_knot_distance="true"
       apply_no_radius="true"
       apply_with_radius="true"
       only_selected="false"
       hide_knots="false" />
    <inkscape:path-effect
       effect="fillet_chamfer"
       id="path-effect26"
       is_visible="true"
       lpeversion="1"
       nodesatellites_param="F,0,0,1,0,0,0,1 @ F,0,0,1,0,0,0,1 @ F,0,0,1,0,0,0,1 @ F,0,0,1,0,0,0,1 @ F,0,0,1,0,0,0,1 @ F,0,0,1,0,0,0,1 @ F,0,0,1,0,0,0,1 @ F,0,0,1,0,0,0,1 @ F,0,0,1,0,0,0,1 @ F,0,0,1,0,0,0,1 @ F,0,0,1,0,0,0,1"
       radius="0"
       unit="px"
       method="auto"
       mode="F"
       chamfer_steps="1"
       flexible="false"
       use_knot_distance="true"
       apply_no_radius="true"
       apply_with_radius="true"
       only_selected="false"
       hide_knots="false" />
    <inkscape:path-effect
       effect="fillet_chamfer"
       id="path-effect25"
       is_visible="true"
       lpeversion="1"
       nodesatellites_param="F,0,0,1,0,0,0,1 @ F,0,0,1,0,0,0,1 @ F,0,0,1,0,0,0,1 @ F,0,0,1,0,0,0,1 @ F,0,0,1,0,0,0,1 @ F,0,0,1,0,0,0,1 @ F,0,0,1,0,0,0,1 @ F,0,0,1,0,0,0,1 @ F,0,0,1,0,0,0,1 @ F,0,0,1,0,0,0,1 @ F,0,0,1,0,0,0,1"
       radius="0"
       unit="px"
       method="auto"
       mode="F"
       chamfer_steps="1"
       flexible="false"
       use_knot_distance="true"
       apply_no_radius="true"
       apply_with_radius="true"
       only_selected="false"
       hide_knots="false" />
    <inkscape:path-effect
       effect="fillet_chamfer"
       id="path-effect24"
       is_visible="true"
       lpeversion="1"
       nodesatellites_param="F,0,0,1,0,0,0,1 @ F,0,0,1,0,0,0,1 @ F,0,0,1,0,0,0,1 @ F,0,0,1,0,0,0,1 @ F,0,0,1,0,0,0,1 @ F,0,0,1,0,0,0,1 @ F,0,0,1,0,0.19218917,0,1 @ F,0,1,1,0,0.19218917,0,1 @ F,0,0,1,0,0,0,1 @ F,0,0,1,0,0,0,1 @ F,0,0,1,0,0,0,1"
       radius="0"
       unit="px"
       method="auto"
       mode="F"
       chamfer_steps="1"
       flexible="false"
       use_knot_distance="true"
       apply_no_radius="true"
       apply_with_radius="true"
       only_selected="false"
       hide_knots="false" />
    <inkscape:path-effect
       effect="fillet_chamfer"
       id="path-effect23"
       is_visible="true"
       lpeversion="1"
       nodesatellites_param="F,0,0,1,0,0,0,1 @ F,0,0,1,0,0,0,1 @ F,0,0,1,0,0,0,1 @ F,0,0,1,0,0,0,1 @ F,0,0,1,0,0,0,1 @ F,0,0,1,0,0,0,1 @ F,0,0,1,0,0,0,1 @ F,0,0,1,0,0,0,1 @ F,0,0,1,0,0,0,1 @ F,0,0,1,0,0,0,1 @ F,0,0,1,0,0,0,1"
       radius="0"
       unit="px"
       method="auto"
       mode="F"
       chamfer_steps="1"
       flexible="false"
       use_knot_distance="true"
       apply_no_radius="true"
       apply_with_radius="true"
       only_selected="false"
       hide_knots="false" />
    <inkscape:path-effect
       effect="bspline"
       id="path-effect22"
       is_visible="true"
       lpeversion="1.3"
       weight="33.333333"
       steps="2"
       helper_size="0"
       apply_no_weight="true"
       apply_with_weight="true"
       only_selected="false"
       uniform="false" />
    <inkscape:path-effect
       effect="bspline"
       id="path-effect21"
       is_visible="true"
       lpeversion="1.3"
       weight="33.333333"
       steps="2"
       helper_size="0"
       apply_no_weight="true"
       apply_with_weight="true"
       only_selected="false"
       uniform="false" />
    <inkscape:path-effect
       effect="bspline"
       id="path-effect20"
       is_visible="true"
       lpeversion="1.3"
       weight="33.333333"
       steps="2"
       helper_size="0"
       apply_no_weight="true"
       apply_with_weight="true"
       only_selected="false"
       uniform="false" />
    <inkscape:path-effect
       effect="bspline"
       id="path-effect19"
       is_visible="true"
       lpeversion="1.3"
       weight="33.333333"
       steps="2"
       helper_size="0"
       apply_no_weight="true"
       apply_with_weight="true"
       only_selected="false"
       uniform="false" />
    <inkscape:path-effect
       effect="perspective-envelope"
       up_left_point="9.377642,3.9931687"
       up_right_point="28.007023,4.1333203"
       down_left_point="9.8539827,8.7941255"
       down_right_point="27.609058,8.7474083"
       id="path-effect11"
       is_visible="true"
       lpeversion="1"
       deform_type="perspective"
       horizontal_mirror="false"
       vertical_mirror="false"
       overflow_perspective="false" />
    <inkscape:path-effect
       effect="bend_path"
       id="path-effect10"
       is_visible="true"
       lpeversion="1"
       bendpath="M 10.797411,6.2314835 C 19.27353,4.4609033 20.284961,8.858499 27.126795,6.1323813"
       prop_scale="1.1347222"
       scale_y_rel="false"
       vertical="false"
       hide_knot="false"
       bendpath-nodetypes="cc" />
    <inkscape:path-effect
       effect="envelope"
       id="path-effect9"
       is_visible="true"
       lpeversion="1"
       yy="true"
       xx="true"
       bendpath1="M 10.797411,4.6105074 H 25.879838"
       bendpath2="M 25.879838,4.6105074 V 7.8524596"
       bendpath3="M 10.797411,7.8524596 H 25.879838"
       bendpath4="M 10.797411,4.6105074 V 7.8524596" />
    <inkscape:path-effect
       effect="perspective-envelope"
       up_left_point="10.797411,4.5017429"
       up_right_point="25.879838,5.050639"
       down_left_point="10.797411,7.9528894"
       down_right_point="25.879838,7.4039933"
       id="path-effect8"
       is_visible="true"
       lpeversion="1"
       deform_type="perspective"
       horizontal_mirror="true"
       vertical_mirror="false"
       overflow_perspective="false" />
    <inkscape:path-effect
       effect="envelope"
       id="path-effect7"
       is_visible="true"
       lpeversion="1"
       yy="true"
       xx="true"
       bendpath1="M 11.474177,3.9923057 25.879838,5.050639"
       bendpath2="M 25.879838,5.050639 V 7.4039933"
       bendpath3="M 11.474177,8.4623266 25.879838,7.4039933"
       bendpath4="M 11.474177,5.050639 V 7.4039933"
       bendpath1-nodetypes="cc"
       bendpath3-nodetypes="cc" />
  </defs>
  <g
     inkscape:label="Layer 1"
     inkscape:groupmode="layer"
     id="layer1">
    <g
       id="g19"
       transform="translate(-11.558777,-5.7585935)">
      <path
         style="font-weight:500;font-size:3.175px;line-height:0.6;font-family:CoopBlack;-inkscape-font-specification:'CoopBlack Medium';fill:#5a59f5;stroke-width:15"
         d="m 31.146011,7.9312406 c -0.0254,-0.727075 -0.866775,-1.2064999 -2.3114,-0.9715499 -0.0064,0.9270999 0.0095,1.4636749 0.03492,2.1589999 1.736725,0.073025 2.301875,-0.45085 2.276475,-1.18745 z m -1.406525,0.358775 c -0.01905,-0.200025 -0.01905,-0.454025 -0.01905,-0.454025 0.530225,-0.104775 0.669925,0.428625 0.01905,0.454025 z"
         id="path18" />
      <path
         style="font-weight:500;font-size:3.175px;line-height:0.6;font-family:CoopBlack;-inkscape-font-specification:'CoopBlack Medium';fill:#5a59f5;stroke-width:15"
         d="m 28.726664,9.0837656 c -0.04128,-0.384175 -0.1016,-0.75565 -0.1016,-0.75565 -0.517525,0.0635 -1.019175,0.1016 -1.019175,0.1016 -0.0032,-0.053975 -0.0095,-0.142875 -0.0095,-0.142875 0.123825,-0.022225 0.31115,-0.05715 0.51435,-0.098425 -0.01588,-0.174625 -0.02858,-0.352425 -0.02858,-0.352425 -0.2159,-0.015875 -0.498475,-0.03175 -0.498475,-0.03175 -0.0032,-0.05715 -0.0032,-0.117475 -0.0032,-0.1778 0.396875,0.041275 1.02235,0.079375 1.02235,0.079375 0.03175,-0.352425 0.04127,-0.8191499 0.04127,-0.8191499 -0.669925,0.00635 -1.235075,0.015875 -1.9558,0.073025 0.0064,0.7683499 0.0254,1.6128999 0.04127,2.1589999 0.542925,0 1.285875,-0.0127 1.997075,-0.034925 z"
         id="path17" />
      <path
         style="font-weight:500;font-size:3.175px;line-height:0.6;font-family:CoopBlack;-inkscape-font-specification:'CoopBlack Medium';fill:#5a59f5;stroke-width:15"
         d="m 26.577189,7.9312406 c -0.0254,-0.727075 -0.866775,-1.2064999 -2.3114,-0.9715499 -0.0064,0.9270999 0.0095,1.4636749 0.03493,2.1589999 1.736725,0.073025 2.301875,-0.45085 2.276475,-1.18745 z m -1.406525,0.358775 c -0.01905,-0.200025 -0.01905,-0.454025 -0.01905,-0.454025 0.530225,-0.104775 0.669925,0.428625 0.01905,0.454025 z"
         id="path16" />
      <path
         style="font-weight:500;font-size:3.175px;line-height:0.6;font-family:CoopBlack;-inkscape-font-specification:'CoopBlack Medium';fill:#5a59f5;stroke-width:15"
         d="m 24.145138,7.0200157 c 0,0 -0.4826,-0.0762 -0.987425,-0.1016 0,0 -0.01905,0.6032499 -0.03493,1.1175999 0,0 -0.31115,-0.549275 -0.549275,-1.0572749 0,0 -0.485775,-0.0508 -0.94615,-0.0508 -0.01905,0.7588249 -0.03175,1.4446249 -0.03493,2.1367749 0,0 0.542925,0.060325 0.917575,0.08255 0.0064,-0.276225 0.0095,-0.447675 0.0127,-0.84455 0,0 0.257175,0.4445 0.47625,0.86995 0,0 0.5842,-0.053975 1.02235,-0.1397 0.05715,-0.7112 0.09842,-1.438275 0.123825,-2.0129499 z"
         id="path15" />
      <path
         style="font-weight:500;font-size:3.175px;line-height:0.6;font-family:CoopBlack;-inkscape-font-specification:'CoopBlack Medium';fill:#5a59f5;stroke-width:15"
         d="m 21.354312,6.8676157 c -0.434975,0.073025 -0.917575,0.1905 -0.917575,0.1905 0.07938,0.7873999 0.0254,1.2985749 -0.136525,1.2826999 -0.15875,-0.0127 -0.18415,-0.48895 -0.03175,-1.2382499 0,0 -0.454025,-0.098425 -0.9017,-0.149225 -0.3429,1.1017249 -0.14605,2.1812249 0.9525,2.1367749 1.27635,-0.0508 1.254125,-1.158875 1.03505,-2.2224999 z"
         id="path14" />
      <path
         style="font-weight:500;font-size:3.175px;line-height:0.6;font-family:CoopBlack;-inkscape-font-specification:'CoopBlack Medium';fill:#5a59f5;stroke-width:15"
         d="m 19.096885,8.0233156 c -0.03175,-0.60325 -0.536575,-1.0890249 -1.2827,-1.0890249 -0.650875,0 -1.323975,0.3809999 -1.330325,1.1048999 -0.0063,0.714375 0.5842,1.108075 1.28905,1.108075 0.879475,0 1.355725,-0.5461 1.323975,-1.12395 z m -0.9271,0.08255 c 0,0.14605 -0.149225,0.26035 -0.333375,0.26035 -0.18415,0 -0.333375,-0.1143 -0.333375,-0.26035 0,-0.142875 0.149225,-0.26035 0.333375,-0.26035 0.18415,0 0.333375,0.117475 0.333375,0.26035 z"
         id="path13" />
      <path
         style="font-weight:500;font-size:3.175px;line-height:0.6;font-family:CoopBlack;-inkscape-font-specification:'CoopBlack Medium';fill:#5a59f5;stroke-width:14.9963"
         d="m 16.527821,8.7953788 c 0,0 -0.254616,-0.2917252 -0.522631,-0.556383 0.301517,-0.2075158 0.385272,-0.4781886 0.368521,-0.6556297 -0.0938,-0.9082575 -1.611444,-0.7067567 -2.204429,-0.538338 0.0034,0.6466071 -0.0066,1.4105059 0.0201,2.0210235 0,0 0.479078,0.021052 0.954805,0.033082 0,0 -0.02346,-0.3157849 -0.03685,-0.5714204 0.0871,0.1142841 0.288117,0.372927 0.489129,0.5864578 0,0 0.415424,-0.1593962 0.931355,-0.3187922 z M 15.070485,7.9322333 c -0.0066,-0.096239 -0.0134,-0.2015009 -0.01674,-0.30977 0.552783,-0.081202 0.562833,0.2947326 0.01674,0.30977 z"
         id="path12" />
      <path
         style="font-weight:500;font-size:3.175px;line-height:0.6;font-family:CoopBlack;-inkscape-font-specification:'CoopBlack Medium';fill:#5a59f5;stroke-width:14.5076"
         d="m 13.862368,7.5195903 c -0.591121,0.2835724 -0.914678,0.44706 -1.178158,0.5792924 0,0 0.08748,0.1632399 0.179517,0.2892678 0,0 0.131307,-0.05011 0.231083,-0.078646 -0.0013,0.081379 -0.05691,0.142154 -0.132806,0.1701887 -0.138369,0.049866 -0.302503,-0.025302 -0.404117,-0.1890391 -0.249286,-0.3904671 0.157445,-0.6204663 0.420846,-0.4577236 0,0 0.279863,-0.3118473 0.631245,-0.6532177 C 13.2438,6.8959049 12.687838,6.8296704 12.192694,7.061884 11.64115,7.3201425 11.349769,7.925233 11.733215,8.548672 c 0.373264,0.6070754 1.029799,0.7462371 1.628689,0.4696155 0.59889,-0.2766217 0.885725,-0.8444948 0.500464,-1.4986972 z"
         id="text12"
         inkscape:path-effect="#path-effect28"
         inkscape:original-d="m 13.862368,7.5195903 c -0.591121,0.2835724 -0.914678,0.44706 -1.178158,0.5792924 0,0 0.08748,0.1632399 0.179517,0.2892678 0,0 0.131307,-0.05011 0.231083,-0.078646 -0.0013,0.081379 -0.05691,0.142154 -0.132806,0.1701887 -0.138369,0.049866 -0.302503,-0.025302 -0.404117,-0.1890391 -0.249286,-0.3904671 0.157445,-0.6204663 0.420846,-0.4577236 0,0 0.279863,-0.3118473 0.631245,-0.6532177 C 13.2438,6.8959049 12.687838,6.8296704 12.192694,7.061884 11.64115,7.3201425 11.349769,7.925233 11.733215,8.548672 c 0.373264,0.6070754 1.029799,0.7462371 1.628689,0.4696155 0.59889,-0.2766217 0.885725,-0.8444948 0.500464,-1.4986972 z" />
    </g>
    <path
       d="m 19.978741,-0.00103353 c -0.05818,0.82777123 -0.05041,1.56079503 -0.170537,2.26252873 0.0075,-0.024979 0.593254,-0.00331 0.844797,0.1620332 0.417797,-0.9843497 0.602974,-1.325081 0.999499,-1.9652428 -0.581316,-0.03989 -1.120525,-0.29055683 -1.673759,-0.45931913 z M 20.48031,2.9475873 C 20.53143,2.7172591 20.39457,2.4990566 20.179452,2.466684 19.96247,2.429176 19.744211,2.5851472 19.694949,2.8206097 c -0.05112,0.2303282 0.08388,0.4433954 0.300858,0.4809033 0.213923,0.036654 0.433379,-0.1235983 0.484503,-0.3539257 z"
       id="text22"
       style="font-weight:500;font-size:3.75676px;line-height:0.6;font-family:CoopBlack;-inkscape-font-specification:'CoopBlack Medium';fill:#5a59f5;stroke-width:17.7485"
       aria-label="!"
       sodipodi:nodetypes="cccccscccs" />
    <path
       id="text23"
       style="font-style:normal;font-variant:normal;font-weight:normal;font-stretch:normal;font-size:3.48345px;line-height:0.6;font-family:TikiIsland;-inkscape-font-specification:TikiIsland;text-align:start;writing-mode:lr-tb;direction:ltr;text-anchor:start;fill:#5a59f5;fill-opacity:1;stroke-width:16.4573"
       d="m 14.891806,3.6940597 -0.632003,0.00256 c 0.03143,0.057625 0.01346,1.7979113 -0.04029,1.9326941 l 0.65009,-0.00256 c -0.04452,-0.2456827 -0.02462,-0.4962445 -0.02276,-0.7446573 0.10961,0.061968 0.223433,0.1152903 0.336414,0.1705359 0,0 -0.0298,0.431326 -0.01344,0.6278691 l 0.74414,-0.018608 c 0.09979,-0.6951871 -0.03705,-0.6530593 -0.645406,-0.942064 0.200341,-0.171469 0.405416,-0.2692821 0.623208,-0.4113425 l 0.03565,-0.5467368 -0.546736,-0.013433 c -0.132121,0.288107 -0.351861,0.5153872 -0.551386,0.757576 z M 0.15420559,3.7074927 c 0.1936249,0.8027356 0.093989,0.2466585 0.4754231,1.9435511 0.2939127,-0.032235 0.52737671,-0.026385 0.81131951,-0.038241 0.0036,-0.016984 0.1007676,-0.2523768 0.412895,-1.8453658 L 1.3830708,3.772647 C 1.305444,4.277484 1.2433189,4.784559 1.1763652,5.2908959 L 0.95260639,3.7074952 Z M 10.798515,3.7106029 C 10.768023,4.1692345 10.682276,4.5907502 10.619195,5.0500537 10.504411,4.6179965 10.375076,4.1891201 10.29157,3.7509081 L 9.3190213,3.7374901 c 0.04444,0.6343138 0.01017,1.30292 0.01754,1.9487184 l 0.497645,0.00256 c -0.05279,-0.5347657 -0.06927,-1.074737 -0.04444,-1.6185059 0.2555237,0.4764762 0.3366647,1.061195 0.4707597,1.588531 l 0.434599,0.00827 0.327628,-0.00521 -0.03152,-0.1085201 c 0.09582,-0.5010879 0.133544,-1.0260293 0.309031,-1.4965495 0.104564,0.5256492 0.09171,1.0445686 0.07183,1.5750977 l 0.762228,-0.00521 5.1e-5,-1.916161 c -1.675976,-0.00668 0.690846,0.021583 -1.335859,9.56e-5 z M 6.5615659,3.8159842 C 6.4857166,4.1434884 6.375862,4.4116905 6.278872,4.7254911 l 0.2423623,0.7627436 0.4123779,0.1870691 c 0.308935,-0.015671 0.6106491,-0.082765 0.9146721,-0.086815 L 8.0363872,4.7575319 C 7.9126322,4.4440111 7.8371252,4.121773 7.7314562,3.7860147 7.3113042,3.6734033 6.9720532,3.7507263 6.5615659,3.8159811 Z M 4.6650414,3.7591436 c 0.065578,0.1651975 0.067148,1.4718903 0.067148,1.9104691 l 1.362707,0.010854 -0.035653,-0.40566 c -0.2316261,0.030362 -0.456942,0.02675 -0.6950452,0.018631 L 5.3373234,5.0448739 c 0.1177445,-0.028972 0.5375243,-0.06179 0.7400095,-0.073366 -0.010683,-0.1502446 0.030427,-0.2337435 0.04909,-0.3948101 -0.2410856,-0.01888 -0.4808505,-0.018499 -0.7219193,-0.00827 l 0.00154,-0.4706615 0.6846806,0.00761 0.089403,0.027387 0.036168,-0.376204 c -0.5175794,-0.026944 -1.0338948,-0.01435 -1.5512579,0.00256 z m 12.0917666,-0.021708 -0.663526,0.021708 c 0.04789,0.1206543 0.09888,1.3429229 0.06715,1.9104691 l 1.363224,0.010854 -0.03565,-0.40566 c -0.231621,0.030347 -0.45696,0.026765 -0.695042,0.018631 0.0198,-0.1088098 -0.03982,-0.2048197 -0.06304,-0.2945581 0.258486,0.016922 0.517531,-0.012594 0.775662,-0.027372 -0.01081,-0.1502866 0.03052,-0.2337582 0.04962,-0.3948101 -0.241088,-0.018841 -0.480853,-0.018514 -0.72192,-0.00827 0,0 -0.07666,-0.4339436 0.0093,-0.4790796 0.257742,-0.027325 0.51453,0.00311 0.766327,0.043407 l 0.03565,-0.3762041 z m -14.7686062,0.00521 c 0.036773,0.6314694 0.056658,1.2679252 0.031521,1.9109943 l 0.5870446,0.021708 c 0.016256,-0.6333931 0.071756,-1.2841166 0.089917,-1.9326988 l -0.1121328,0.016533 z m 10.7109732,0.00567 c -0.140118,0.6095824 -0.332096,1.2688374 -0.488333,1.9104769 0.236357,0.02083 0.452574,-0.013099 0.681107,0.016518 -0.05492,-0.1679829 -0.03063,-0.330887 -0.01757,-0.5033287 l 0.390157,-0.024287 c 0.01304,0.030425 0.117577,0.3929641 0.0894,0.5002287 l 0.753443,-0.010333 c -0.158903,-0.4991184 -0.424865,-1.7849116 -0.367928,-1.889286 -0.347044,0.018103 -0.693328,0.010504 -1.040279,1.17e-5 z m 5.084444,0 c 0.0976,0.146966 0.06607,1.2557918 0.04029,1.889286 0.22607,-0.012594 0.451129,-0.010333 0.676961,0 -0.08736,-0.1975748 -0.05523,-0.4122391 -0.05376,-0.622701 0.06245,0.043058 0.136267,0.026276 0.206192,0.037744 l 0.170532,0.1839675 -0.01808,0.4439008 0.784965,0.024287 C 19.475834,5.5348773 19.488666,5.3002931 19.473916,5.0986378 L 19.079625,4.8821136 19.375214,4.7441375 19.518875,4.2976534 19.37108,3.9214494 19.030016,3.7535007 Z M 2.8310448,3.7617463 c 0.115801,0.4168883 -0.097846,0.5261263 0.075965,1.8350302 l -0.022215,0.054261 C 3.2724814,5.6222212 3.6510647,5.6188648 4.0371725,5.6019432 4.2380976,5.452418 4.3373078,5.268142 4.49915,5.1017199 L 4.4676159,4.0242675 3.8981417,3.7700191 c -0.3541683,0.014218 -0.704143,-0.00536 -1.0670969,-0.00827 z M 13.11207,4.0619862 13.251079,4.7063916 c -0.09249,0.039678 -0.213634,0.035358 -0.31231,0.015531 z m -9.6221512,0.024808 0.287321,0.021187 c 0.074897,0.3937348 0.037172,0.7522395 -0.036168,1.1342977 -0.1044745,-0.032313 -0.2114396,-0.00893 -0.3183287,0 0.072413,-0.3929858 -0.011841,-0.7926805 0.067174,-1.1554847 z m 15.2755512,0.0512 0.0093,0.5601731 -0.291454,0.0217 c 0,0 -0.0062,-0.4462976 -0.0093,-0.6252873 z M 7.2292262,4.1136991 c 0.04397,0.401146 0.037,0.7978961 0.01344,1.1988937 -0.08884,-0.041007 -0.186426,-0.029912 -0.282153,-0.032546 -0.08833,-0.400909 -0.0437,-0.7629083 0.02223,-1.1580688 z"
       sodipodi:nodetypes="cccccccccccccccccccccccccccccccccccccccccccccccccccccccccccccccccccccccccccccccccccccccccccccccccccccccccccccccccccccccccccccccccccccccc" />
  </g>
</svg>
